<svg height="465pt" viewBox="-10 0 465 465.71878" width="465pt" xmlns="http://www.w3.org/2000/svg" xmlns:xlink="http://www.w3.org/1999/xlink"><linearGradient id="linear0" gradientUnits="userSpaceOnUse" x1="5.682049" x2="378.998049" y1="47.834783" y2="421.150783"><stop offset="0" stop-color="#ffca6c"/><stop offset="1" stop-color="#ff654f"/></linearGradient><path d="m188.800781 303.945312v29.71875c.015625 6.59375 5.367188 11.933594 11.960938 11.9375h84.136719c6.59375-.007812 11.9375-5.347656 11.953124-11.9375v-29.71875c-.011718-6.597656-5.355468-11.941406-11.953124-11.949218h-84.136719c-6.601563.003906-11.949219 5.351562-11.960938 11.949218zm16 4.050782h76.050781v21.597656h-76.050781zm75.339844-217.347656c0-13.1875-10.6875-23.875-23.875-23.878907-13.183594 0-23.875 10.6875-23.875 23.875-.003906 13.183594 10.6875 23.875 23.871094 23.878907 13.183593-.015626 23.863281-10.695313 23.878906-23.875zm-31.75 0c0-4.351563 3.527344-7.878907 7.875-7.878907 4.351563 0 7.875 3.527344 7.875 7.878907 0 4.347656-3.523437 7.875-7.875 7.875-4.347656-.003907-7.875-3.527344-7.878906-7.875zm-133.519531 0c0-13.1875-10.691406-23.875-23.875-23.878907-13.1875 0-23.875 10.6875-23.878906 23.875 0 13.183594 10.6875 23.875 23.871093 23.878907 13.183594-.015626 23.863281-10.695313 23.878907-23.875zm-31.753906 0c0-4.351563 3.527343-7.878907 7.875-7.878907 4.351562 0 7.878906 3.527344 7.878906 7.878907 0 4.347656-3.527344 7.875-7.878906 7.875-4.347657-.003907-7.875-3.527344-7.878907-7.875zm213.742187 122.4375c0-11.996094-9.726563-21.722657-21.726563-21.722657-11.996093 0-21.722656 9.726563-21.722656 21.722657 0 12 9.726563 21.726562 21.722656 21.726562 11.992188-.019531 21.703126-9.738281 21.71875-21.726562zm-27.445313 0c0-3.160157 2.5625-5.722657 5.722657-5.722657 3.164062 0 5.726562 2.5625 5.726562 5.722657 0 3.164062-2.5625 5.726562-5.726562 5.726562-3.164063 0-5.726563-2.5625-5.730469-5.726562zm-208 132.511718c-4.417968 0-8-3.582031-8-8 0-4.417968 3.582032-8 8-8h32.921876c4.417968 0 8 3.582032 8 8 0 4.417969-3.582032 8-8 8zm375.15625-171.320312c-5.34375-3.300782-12.027343-3.550782-17.601562-.660156l-15.535156 7.964843-26.941406 13.808594c-3.929688 2.015625-5.484376 6.835937-3.46875 10.769531 2.011718 3.929688 6.835937 5.484375 10.765624 3.46875l15.292969-7.839844v133.5625l-74.515625-38.195312v-57.160156l36.078125-18.496094c3.933594-2.015625 5.488281-6.835938 3.472657-10.769531-2.015626-3.933594-6.835938-5.488281-10.765626-3.472657l-28.800781 14.757813v-31.648437c-.019531-11.25-7.519531-21.117188-18.355469-24.140626 37.574219-24.878906 51.160157-73.585937 31.890626-114.324218-19.265626-40.738282-65.539063-61.132813-108.609376-47.867188-2.765624.816406-4.878906 3.054688-5.527343 5.863282-.652344 2.808593.257812 5.753906 2.378906 7.703124 2.125 1.949219 5.136719 2.605469 7.878906 1.71875 36.484375-11.324218 75.632813 6.691407 90.765625 41.765626 15.136719 35.074218 1.382813 75.914062-31.886718 94.6875-33.265626 18.777343-75.335938 9.441406-97.539063-21.644532-22.203125-31.085937-17.390625-73.910156 11.160156-99.289062 3.300781-2.9375 3.597657-7.996094.664063-11.296875-2.9375-3.304688-7.996094-3.601563-11.296875-.664063-9.558594 8.496094-17.210938 18.921875-22.457031 30.582032-15.804688-35.160157-52.125-56.46875-90.527344-53.117188s-70.480469 30.636719-79.953125 68.003906c-9.472657 37.367188 5.734375 76.636719 37.90625 97.878906-10.835938 3.027344-18.335938 12.890626-18.351563 24.140626 0 4.417968 3.582032 8 8 8 4.417969 0 8-3.582032 8-8 .003906-5.015626 4.066406-9.078126 9.082032-9.085938h251.710937c5.015625.007812 9.078125 4.070312 9.082031 9.085938v156.417968c-.007812 5.011719-4.066406 9.074219-9.082031 9.082032h-251.714844c-5.011719-.003907-9.078125-4.066407-9.082031-9.082032v-130.398437c0-4.417969-3.582031-8-8-8s-8 3.582031-8 8v130.398437c.015625 13.847656 11.234375 25.070313 25.082031 25.082032h108.152344l-70.9375 80.5625c-2.789063 3.328124-2.417969 8.273437.839844 11.144531 3.257812 2.875 8.210937 2.621093 11.160156-.566407l68.632813-77.949218v72.660156c0 4.417969 3.582031 8 8 8 4.417968 0 8-3.582031 8-8v-72.660156l68.632812 77.949218c2.949219 3.1875 7.902344 3.441407 11.164062.566407 3.257813-2.871094 3.628907-7.816407.835938-11.144531l-70.921875-80.5625h108.15625c13.847656-.015626 25.066406-11.234376 25.082031-25.082032v-31.648437l78.863282 40.425781 15.535156 7.964844c2.542968 1.308594 5.359375 1.996094 8.222656 2 1.941406-.015625 3.867188-.347656 5.703125-.984375 1.277344-.421875 2.507813-.984375 3.664063-1.675781 5.363281-3.25 8.632812-9.078126 8.605468-15.351563v-157.878906c.027344-6.273438-3.238281-12.101563-8.601562-15.355469zm-420.207031-83.628906c0-41.222657 33.417969-74.640626 74.636719-74.636719 41.222656 0 74.636719 33.417969 74.632812 74.640625 0 41.222656-33.421874 74.636718-74.644531 74.628906-41.195312-.050781-74.578125-33.4375-74.625-74.632812zm125.964844 74.632812c13.648437-9.414062 24.464844-22.371094 31.296875-37.476562 6.832031 15.105468 17.652344 28.0625 31.296875 37.476562zm272.753906 28.3125 11.199219-5.730469c.617188-.3125 1.355469-.285156 1.945312.078125.59375.359375.957032 1 .960938 1.695313v157.878906c.015625.695313-.347656 1.347656-.953125 1.699219-.214844.125-.449219.214844-.691406.261718-.050781 0-.089844.027344-.140625.03125h-.023438c-.378906.035157-.761718-.042968-1.097656-.222656l-11.199219-5.730468zm0 0" fill="url(#linear0)"/></svg>